<svg width="33" height="29" viewBox="0 0 33 29" fill="none" xmlns="http://www.w3.org/2000/svg">
<path d="M32.5 25.8726C32.5 27.2635 32.0425 28.3885 31.4768 28.3885H19.3111C19.0226 28.3885 18.7623 28.0966 18.576 27.6214L10.5466 7.245L2.24674 27.6521C2.06105 28.1084 1.80557 28.3893 1.52288 28.3893C0.957495 28.3893 0.5 27.2635 0.5 25.8734C0.5 25.1787 0.614614 24.5501 0.799341 24.0962L9.83495 1.88047C10.0203 1.42654 10.2764 1.14332 10.5588 1.14332C10.8473 1.14332 11.1079 1.43676 11.2936 1.90879L13.646 7.88145H19.953V0.882926H22.6675V7.88145H25.9609C26.2673 7.88145 26.543 8.21423 26.7309 8.73817L32.2468 24.215C32.4046 24.6587 32.5 25.2409 32.5 25.8726ZM7.72484 21.6788H9.95757V19.5089H7.72484V21.6788ZM11.0912 21.6788H13.3164L13.3236 19.5089H11.0912V21.6788ZM7.72484 25.8726H9.81641V23.1788H7.72484V25.8726ZM11.0912 25.8734H13.3236V23.1788H11.0912V25.8734Z" fill="url(#paint0_linear_231_2)"/>
<defs>
<linearGradient id="paint0_linear_231_2" x1="5.01758" y1="0.734952" x2="37.0239" y2="0.81931" gradientUnits="userSpaceOnUse">
<stop stop-color="#B88746"/>
<stop offset="1" stop-color="#FDF5A6"/>
</linearGradient>
</defs>
</svg>
