<svg width="100" height="13" viewBox="0 0 100 13" fill="none" xmlns="http://www.w3.org/2000/svg">
<path d="M31.25 9.93123C31.25 10.484 30.8032 10.9311 30.2508 10.9311H18.3702C18.0885 10.9311 17.8343 10.8151 17.6524 10.6262L9.81117 2.52838L1.7058 10.6384C1.52447 10.8198 1.27497 10.9314 0.998907 10.9314C0.446772 10.9314 0 10.484 0 9.93154C0 9.65547 0.111928 9.40567 0.292325 9.22527L9.11616 0.396436C9.29718 0.216039 9.5473 0.103486 9.82305 0.103486C10.1047 0.103486 10.3592 0.220103 10.5406 0.407691L12.8379 2.78131H18.9971V0H21.648V2.78131H24.8642C25.1634 2.78131 25.4326 2.91356 25.6161 3.12178L31.0027 9.27248C31.1568 9.44882 31.25 9.68017 31.25 9.93123ZM7.0555 9.58388H9.2359V7.40223H7.0555V9.58388ZM10.343 9.58388H12.5231V7.40223H10.343V9.58388ZM7.0555 12.706H9.2359V10.5243H7.0555V12.706ZM10.343 12.7172H12.5231V10.5353H10.343V12.7172Z" fill="url(#paint0_linear_5_137)"/>
<path d="M38.3681 10.6019H37.5V2.5H41.088C42.3032 2.5 43.1134 3.31019 43.1134 4.40972V5.50926C43.1134 7.12963 41.5509 7.36111 41.5509 7.36111L43.3449 10.2546V10.6019H42.4769L40.6829 7.41898H38.3681V10.6019ZM41.088 3.25231H38.3681V6.66667H41.088C41.7245 6.66667 42.2454 6.14583 42.2454 5.50926V4.40972C42.2454 3.77315 41.7245 3.25231 41.088 3.25231ZM49.2477 10.6019H46.4699C45.3704 10.6019 44.7338 9.90741 44.7338 8.98148V6.2037C44.7338 5.27778 45.4282 4.58333 46.4699 4.58333H47.7431C48.7847 4.58333 49.4792 5.27778 49.4792 6.2037V7.99769H45.544V8.98148C45.544 9.50232 45.9491 9.90741 46.4699 9.90741H49.2477V10.6019ZM45.544 6.2037V7.30324H48.669V6.2037C48.669 5.68287 48.2639 5.27778 47.7431 5.27778H46.4699C45.9491 5.27778 45.544 5.68287 45.544 6.2037ZM56.1343 10.6019H55.3241V6.2037C55.3241 5.68287 54.919 5.27778 54.3981 5.27778H53.3565C52.4884 5.27778 52.0255 6.31944 52.0255 6.31944V10.6019H51.2153V4.69907H51.7361L51.8519 5.50926H51.9097C51.9097 5.50926 52.3727 4.58333 53.3565 4.58333H54.3981C55.4398 4.58333 56.1343 5.27778 56.1343 6.2037V10.6019ZM58.6806 6.2037V9.09722C58.6806 9.61806 59.0856 10.0231 59.6065 10.0231H61.0532C61.5741 10.0231 61.9792 9.61806 61.9792 9.09722V6.2037C61.9792 5.68287 61.5741 5.27778 61.0532 5.27778H59.6065C59.0856 5.27778 58.6806 5.68287 58.6806 6.2037ZM57.8704 9.09722V6.2037C57.8704 5.27778 58.5648 4.58333 59.6065 4.58333H61.0532C62.0949 4.58333 62.7894 5.27778 62.7894 6.2037V9.09722C62.7894 10.0231 62.0949 10.7176 61.0532 10.7176H59.6065C58.5069 10.7176 57.8704 10.0231 57.8704 9.09722ZM69.2708 9.50232H68.4028L66.0301 3.83102H65.9722L65.162 10.6019H64.294V10.2546L65.3356 2.5H66.3773L68.8079 8.34491H68.8657L71.2963 2.5H72.338L73.3796 10.2546V10.6019H72.5116L71.7014 3.83102H71.6435L69.2708 9.50232ZM75.6944 6.2037V9.09722C75.6944 9.61806 76.0995 10.0231 76.6204 10.0231H78.0671C78.588 10.0231 78.9931 9.61806 78.9931 9.09722V6.2037C78.9931 5.68287 78.588 5.27778 78.0671 5.27778H76.6204C76.0995 5.27778 75.6944 5.68287 75.6944 6.2037ZM74.8843 9.09722V6.2037C74.8843 5.27778 75.5787 4.58333 76.6204 4.58333H78.0671C79.1088 4.58333 79.8032 5.27778 79.8032 6.2037V9.09722C79.8032 10.0231 79.1088 10.7176 78.0671 10.7176H76.6204C75.5208 10.7176 74.8843 10.0231 74.8843 9.09722ZM80.8449 5.39352V4.69907H81.7708L82.1181 2.96296H82.581V4.69907H84.2593V5.39352H82.581V8.98148C82.581 9.50232 82.9861 9.90741 83.5069 9.90741H84.6065V10.6019H83.5069C82.4653 10.6019 81.7708 9.90741 81.7708 8.98148V5.39352H80.8449ZM86.6898 4.69907V10.6019H85.8796V4.69907H86.6898ZM86.6898 2.5V3.88889H85.8796V2.5H86.6898ZM89.2361 6.2037V9.09722C89.2361 9.61806 89.6412 10.0231 90.162 10.0231H91.6088C92.1296 10.0231 92.5347 9.61806 92.5347 9.09722V6.2037C92.5347 5.68287 92.1296 5.27778 91.6088 5.27778H90.162C89.6412 5.27778 89.2361 5.68287 89.2361 6.2037ZM88.4259 9.09722V6.2037C88.4259 5.27778 89.1204 4.58333 90.162 4.58333H91.6088C92.6505 4.58333 93.3449 5.27778 93.3449 6.2037V9.09722C93.3449 10.0231 92.6505 10.7176 91.6088 10.7176H90.162C89.0625 10.7176 88.4259 10.0231 88.4259 9.09722ZM100 10.6019H99.1898V6.2037C99.1898 5.68287 98.7847 5.27778 98.2639 5.27778H97.2222C96.3542 5.27778 95.8912 6.31944 95.8912 6.31944V10.6019H95.081V4.69907H95.6019L95.7176 5.50926H95.7755C95.7755 5.50926 96.2384 4.58333 97.2222 4.58333H98.2639C99.3056 4.58333 100 5.27778 100 6.2037V10.6019Z" fill="#DCBF77"/>
<defs>
<linearGradient id="paint0_linear_5_137" x1="-9.54095e-10" y1="-2.08502" x2="31.2551" y2="-1.88259" gradientUnits="userSpaceOnUse">
<stop stop-color="#B88746"/>
<stop offset="1" stop-color="#FDF5A6"/>
</linearGradient>
</defs>
</svg>
