<svg width="218" height="186" viewBox="0 0 218 186" fill="none" xmlns="http://www.w3.org/2000/svg">
<path d="M142.333 154.11L164.556 176.333L209 131.888M97.8889 165.222H44.5556C32.11 165.222 25.8871 165.222 21.1336 162.799C16.9521 160.669 13.5526 157.269 11.4221 153.088C9 148.335 9 142.112 9 129.666V45.2216C9 32.776 9 26.5531 11.4221 21.7996C13.5526 17.6181 16.9521 14.2186 21.1336 12.0881C25.8871 9.66601 32.11 9.66602 44.5556 9.66602H173.444C185.89 9.66602 192.113 9.66601 196.867 12.0881C201.048 14.2186 204.448 17.6181 206.578 21.7996C209 26.5531 209 32.776 209 45.2216V87.4438M204.63 45.9137L148.443 83.3716C134.188 92.8749 127.06 97.6271 119.356 99.4738C112.547 101.105 105.449 101.105 98.6411 99.4738C90.9367 97.6271 83.8088 92.8749 69.5528 83.3716L10.6384 44.0952" stroke="#DCBF77" stroke-width="18" stroke-linecap="round" stroke-linejoin="round"/>
</svg>
