<svg width="27" height="25" viewBox="0 0 27 25" fill="none" xmlns="http://www.w3.org/2000/svg">
<path d="M12.3845 1.35062C12.7379 0.580729 12.9147 0.195785 13.1608 0.0772437C13.3745 -0.0257479 13.6255 -0.0257479 13.8392 0.0772437C14.0854 0.195785 14.2621 0.580729 14.6156 1.35062L17.4308 7.48288C17.5354 7.71047 17.5876 7.82427 17.6685 7.91141C17.74 7.98852 17.8275 8.0502 17.925 8.09242C18.0354 8.14015 18.163 8.15322 18.4183 8.17937L25.295 8.88408C26.1584 8.97255 26.59 9.01678 26.7822 9.20739C26.9491 9.37295 27.0266 9.60479 26.9918 9.83401C26.9518 10.0979 26.6294 10.38 25.9845 10.9443L20.8476 15.439C20.6571 15.6057 20.5616 15.6892 20.5013 15.7907C20.4479 15.8807 20.4145 15.9805 20.4033 16.0836C20.3907 16.2003 20.4172 16.3221 20.4705 16.566L21.9053 23.1337C22.0854 23.9583 22.1755 24.3705 22.0482 24.6068C21.9375 24.8123 21.7345 24.9555 21.4992 24.9942C21.2284 25.0386 20.8523 24.8281 20.1003 24.407L14.1102 21.0525C13.888 20.928 13.7768 20.8659 13.6586 20.8414C13.5541 20.8199 13.446 20.8199 13.3414 20.8414C13.2232 20.8659 13.1121 20.928 12.8898 21.0525L6.89979 24.407C6.14776 24.8281 5.77175 25.0386 5.5009 24.9942C5.26562 24.9555 5.0625 24.8123 4.95191 24.6068C4.8246 24.3705 4.91466 23.9583 5.09479 23.1337L6.52953 16.566C6.58278 16.3221 6.60941 16.2003 6.59677 16.0836C6.58558 15.9805 6.55219 15.8807 6.49875 15.7907C6.43837 15.6892 6.34304 15.6057 6.1524 15.439L1.01562 10.9443C0.370721 10.38 0.0482652 10.0979 0.00817391 9.83401C-0.026635 9.60479 0.0509371 9.37295 0.217867 9.20739C0.410049 9.01678 0.841725 8.97255 1.70508 8.88408L8.58181 8.17937C8.83704 8.15322 8.96464 8.14015 9.07499 8.09242C9.17263 8.0502 9.26005 7.98852 9.33159 7.91141C9.41243 7.82427 9.46467 7.71047 9.56917 7.48288L12.3845 1.35062Z" fill="#FAB408"/>
</svg>
