<svg width="200" height="200" viewBox="0 0 200 200" fill="none" xmlns="http://www.w3.org/2000/svg">
<path d="M199.291 147.471C198.517 142.595 196.895 138.223 194.572 134.318L194.664 134.489C193.423 132.454 191.369 131.016 188.967 130.623L188.921 130.616L130.052 121.269C129.684 121.21 129.264 121.184 128.837 121.184C126.553 121.184 124.479 122.09 122.963 123.567C118.992 127.564 115.782 132.323 113.583 137.613L113.478 137.902C90.4663 127.577 72.4427 109.553 62.3806 87.1714L62.1246 86.5347C67.6972 84.2309 72.4558 81.0279 76.4465 77.0503C77.9298 75.5669 78.8487 73.5125 78.8487 71.2415C78.8487 70.7886 78.8094 70.3423 78.7372 69.9025L78.7437 69.9485L69.4037 11.0728C69.0033 8.61803 67.5593 6.55705 65.5509 5.34279L65.5115 5.32309C61.9277 3.17679 57.7336 1.59496 53.2638 0.83358L53.0472 0.800762C50.7565 0.288799 48.1244 0 45.4268 0C45.2693 0 45.1183 0 44.9608 0H44.987H44.9214C20.1634 0.183781 0.150963 20.2225 0 44.9673V44.9805C0.0984543 130.55 69.4365 199.888 155 199.987C179.784 199.842 199.842 179.797 199.993 155.033V155.02C200 154.829 200 154.606 200 154.376C200 151.928 199.744 149.539 199.252 147.235L199.291 147.458V147.471ZM155.013 183.598C78.5009 183.512 16.5009 121.512 16.4156 45.0067C16.5403 29.2606 29.2869 16.5272 45.0264 16.4222C45.0921 16.4222 45.184 16.4222 45.2627 16.4222C46.8971 16.4222 48.492 16.5994 50.0279 16.9407L49.8835 16.9144C51.4128 17.1704 52.7584 17.5249 54.0514 17.9843L53.8873 17.9318L61.8293 68.0385C58.4425 70.5261 54.3796 72.3114 49.9688 73.0793L49.7982 73.1056C45.9191 73.8079 43.018 77.1619 43.018 81.192C43.018 82.1502 43.182 83.0692 43.484 83.9224L43.4643 83.8633C55.4363 118.106 81.9205 144.59 115.342 156.313L116.163 156.562C116.957 156.844 117.876 157.002 118.834 157.002C120.37 157.002 121.801 156.588 123.035 155.86L122.996 155.879C125.037 154.672 126.487 152.65 126.914 150.274L126.921 150.222C127.715 145.64 129.5 141.577 132.04 138.105L131.981 138.184L182.081 146.132C182.528 147.399 182.928 148.922 183.197 150.484L183.223 150.655C183.466 151.816 183.598 153.155 183.598 154.521C183.598 154.678 183.598 154.836 183.591 155V154.974C183.506 170.726 170.766 183.479 155.026 183.584H155.013V183.598ZM113.531 36.3099C113.347 36.2968 113.137 36.2837 112.92 36.2837C108.588 36.2837 105.064 39.7361 104.952 44.0419V44.055C104.946 44.1863 104.939 44.3372 104.939 44.4882C104.939 48.8596 108.346 52.4302 112.651 52.6927H112.671C134.108 53.8873 151.042 71.5631 151.042 93.1903C151.042 94.5358 150.976 95.8616 150.852 97.1744L150.865 97.0103C150.865 101.539 154.54 105.215 159.069 105.215C163.598 105.215 167.274 101.539 167.274 97.0103C167.359 95.8551 167.405 94.5095 167.405 93.1509C167.405 62.7876 143.632 37.9771 113.682 36.3165L113.531 36.3099ZM112.71 17.3542C115.533 17.4986 181.779 21.6862 181.779 97.0103C181.779 101.539 185.455 105.215 189.984 105.215C194.513 105.215 198.188 101.539 198.188 97.0103C198.287 95.4416 198.339 93.6038 198.339 91.7594C198.339 43.6809 161.052 4.30573 113.813 0.991107L113.524 0.977979C113.341 0.964852 113.124 0.951725 112.907 0.951725C108.562 0.951725 105.024 4.42388 104.926 8.7493C104.919 8.87401 104.913 9.02497 104.913 9.16937C104.913 13.5539 108.352 17.131 112.684 17.3542H112.71Z" fill="#DCBF77"/>
</svg>
